HIERARCHY
ROOT ui
{
	 OFFSET 0 0 0
	 CHANNELS 3 XPosition YPosition Z Position
	 EndSite
	 {
	 OFFSET 0 -1 0
	 }
}
ROOT li
{
	 OFFSET 0 0 0
	 CHANNELS 3 XPosition YPosition Z Position
	 EndSite
	 {
	 OFFSET 0 -1 0
	 }
}
ROOT ul
{
	 OFFSET 0 0 0
	 CHANNELS 3 XPosition YPosition Z Position
	 EndSite
	 {
	 OFFSET 0 -1 0
	 }
}
ROOT ll
{
	 OFFSET 0 0 0
	 CHANNELS 3 XPosition YPosition Z Position
	 EndSite
	 {
	 OFFSET 0 -1 0
	 }
}
ROOT tt
{
	 OFFSET 0 0 0
	 CHANNELS 3 XPosition YPosition Z Position
	 EndSite
	 {
	 OFFSET 0 -1 0
	 }
}
ROOT tb
{
	 OFFSET 0 0 0
	 CHANNELS 3 XPosition YPosition Z Position
	 EndSite
	 {
	 OFFSET 0 -1 0
	 }
}
ROOT td
{
	 OFFSET 0 0 0
	 CHANNELS 3 XPosition YPosition Z Position
	 EndSite
	 {
	 OFFSET 0 -1 0
	 }
}
ROOT v
{
	 OFFSET 0 0 0
	 CHANNELS 3 XPosition YPosition Z Position
	 EndSite
	 {
	 OFFSET 0 -1 0
	 }
}
ROOT bn
{
	 OFFSET 0 0 0
	 CHANNELS 3 XPosition YPosition Z Position
	 EndSite
	 {
	 OFFSET 0 -1 0
	 }
}
MOTION
Frames: 24
Frame Time: 0.002
0.008896319389343262	-8.014900088310242E-4	0		0.4747813415527344	-2.370769287109375	0		-1.151192138671875	0.05580947875976563	0		-0.7937843017578124	-2.48398681640625	0		1.43610498046875	-0.5949576416015625	0		3.095176025390625	-0.06759836578369141	0		4.5374384765625	0.07809236907958984	0		5.524607421875	0.28725527954101565	0		-0.27057217407226564	5.9271103515625	0		
-0.04680740356445313	0.014321744918823242	0		0.4680257568359375	-2.359637939453125	0		-1.1501927490234376	0.05576710891723633	0		-0.7686676025390625	-2.47951513671875	0		1.4570850830078126	-0.5963854370117188	0		3.109438232421875	-0.054873249053955075	0		4.5384375	0.07809625244140625	0		5.52532080078125	0.28727484130859376	0		-0.26962057495117187	5.9270751953125	0		
0.010952062606811523	-8.758209943771362E-4	0		0.46600177001953125	-2.36461328125	0		-1.153197509765625	0.052797267913818356	0		-0.7957666625976563	-2.48799267578125	0		1.4360899658203126	-0.5989661254882812	0		3.09139697265625	-0.05949972152709961	0		4.550490234375	0.07787174987792969	0		5.52607470703125	0.28728738403320314	0		-0.2695767517089844	5.92905126953125	0		
-0.03692779541015625	0.0010714149475097657	0		0.4671147155761719	-2.36465673828125	0		-1.15518896484375	0.04879956817626953	0		-0.7397044677734375	-2.49116552734375	0		1.4571611328125	-0.60040625	0		3.088386474609375	-0.06443517303466798	0		4.54058154296875	0.07809181976318359	0		5.529806640625	0.29926373291015623	0		-0.267586181640625	5.92698046875	0		
0.013146795272827149	-9.775480031967163E-4	0		0.4770605773925781	-2.373886474609375	0		-1.2121943359375	0.04391222763061523	0		-0.7935206909179687	-2.48811083984375	0		1.4403778076171876	-0.5950798950195313	0		3.10838671875	-0.06984051513671875	0		4.5499482421875	0.09092176055908203	0		5.53472900390625	0.2817651062011719	0		-0.2371651611328125	5.9453310546875	0		
-0.020619367599487303	0.005672783851623535	0		0.48433392333984376	-2.36706298828125	0		-1.2029495849609375	0.05067546844482422	0		-0.7425595092773437	-2.497192138671875	0		1.4473463134765625	-0.6022423095703126	0		3.092962646484375	-0.046522907257080075	0		4.5510517578125	0.09091590881347657	0		5.53138427734375	0.299280517578125	0		-0.2645296630859375	5.925841796875	0		
0.024300336837768555	-0.0032816669940948485	0		0.4735986022949219	-2.359878662109375	0		-1.1406688232421875	0.059357959747314455	0		-0.787184814453125	-2.484334228515625	0		1.4425880126953126	-0.595167724609375	0		3.082529296875	-0.07231981658935546	0		4.550041015625	0.08595013427734376	0		5.52920947265625	0.2873199768066406	0		-0.26449114990234374	5.926794921875	0		
-0.02950243377685547	0.003764117956161499	0		0.4726527099609375	-2.361899658203125	0		-1.14774560546875	0.05243901824951172	0		-0.7681129760742188	-2.48577685546875	0		1.4415792236328124	-0.5991760864257812	0		3.096855224609375	-0.05961489105224609	0		4.54012646484375	0.08716259002685547	0		5.5299697265625	0.28732211303710936	0		-0.2635021057128906	5.9267236328125	0		
0.023329315185546876	-0.006360432147979736	0		0.4726468811035156	-2.364945556640625	0		-1.2247662353515625	0.050932285308837894	0		-0.7921932983398438	-2.4923515625	0		1.442611572265625	-0.5992305297851562	0		3.099616943359375	-0.07268618774414062	0		4.545966796875	0.07804800415039062	0		5.53070166015625	0.2873160400390625	0		-0.2625525207519531	5.9266474609375	0		
-0.05653876876831055	0.0022007360458374025	0		0.4824653625488281	-2.374197509765625	0		-1.2069384765625	0.043497177124023435	0		-0.789149169921875	-2.4904794921875	0		1.4435924072265625	-0.5992902221679688	0		3.088160888671875	-0.04446817779541016	0		4.555201171875	0.09086170196533203	0		5.53435009765625	0.2992653198242187	0		-0.261651611328125	5.92656689453125	0		
0.019318483352661134	-0.0013986539840698242	0		0.46157177734375	-2.365830322265625	0		-1.197885986328125	0.05023842620849609	0		-0.78308740234375	-2.484672607421875	0		1.4465928955078124	-0.5953969116210938	0		3.105605712890625	-0.06785409545898438	0		4.5660908203125	0.08962956237792968	0		5.532048828125	0.2872637329101563	0		-0.25982626342773435	5.92546240234375	0		
-0.0177662353515625	0.0022837460041046143	0		0.4765201416015625	-2.3621953125	0		-1.139929931640625	0.05498700714111328	0		-0.75136376953125	-2.4923916015625	0		1.447445556640625	-0.5954681396484375	0		3.11971337890625	-0.055174369812011716	0		4.54869775390625	0.07795581817626954	0		5.53265380859375	0.2872095947265625	0		-0.2600179443359375	5.92639404296875	0		
0.020942230224609375	-0.0015729320049285888	0		0.47731585693359374	-2.362280517578125	0		-1.1391534423828125	0.054888916015625	0		-0.763443115234375	-2.486224853515625	0		1.4661224365234375	-0.600908447265625	0		3.097293212890625	-0.06477157592773437	0		4.555634765625	0.08578010559082032	0		5.5332080078125	0.287130859375	0		-0.2602475891113281	5.92832275390625	0		
-0.02732381057739258	3.251990079879761E-4	0		0.5008658752441406	-2.3708330078125	0		-1.145590087890625	0.047933700561523435	0		-0.7637662353515625	-2.488300537109375	0		1.446853759765625	-0.599588623046875	0		3.081263671875	-0.05150609970092773	0		4.5584384765625	0.09067105102539062	0		5.5337099609375	0.2870223083496094	0		-0.2586162414550781	5.92620947265625	0		
-0.04677190399169922	-0.0033644518852233886	0		0.46148760986328125	-2.3711181640625	0		-1.198990966796875	0.04692824935913086	0		-0.750256103515625	-2.494658203125	0		1.447483642578125	-0.5996800537109375	0		3.117521240234375	-0.07031774139404297	0		4.55906689453125	0.09058637237548828	0		5.53711181640625	0.29884686279296874	0		-0.38943841552734376	5.90576611328125	0		
0.03792810821533203	0.0028400969505310058	0		0.49311453247070314	-2.36784228515625	0		-1.19437548828125	0.049751956939697264	0		-0.779515869140625	-2.485149169921875	0		1.459056396484375	-0.5990008544921875	0		3.09980810546875	-0.0340416259765625	0		4.55790576171875	0.10452156066894532	0		5.5375087890625	0.298667724609375	0		-0.25645755004882814	5.92499853515625	0		
-0.01645139503479004	0.009852743148803711	0		0.49155166625976565	-2.3699013671875	0		-1.1326976318359374	0.05842476654052734	0		-0.7441070556640625	-2.488949951171875	0		1.4705797119140624	-0.597327880859375	0		3.088772705078125	-0.05992577362060547	0		4.561130859375	0.09134512329101563	0		5.53490283203125	0.28648794555664064	0		-0.256922119140625	5.925921875	0		
0.029642154693603515	-0.007172760009765625	0		0.47904425048828125	-2.36574169921875	0		-1.1363509521484374	0.054415966033935545	0		-0.7837513427734375	-2.49123388671875	0		1.4489456787109376	-0.5999920043945313	0		3.108295654296875	-0.05543235397338867	0		4.5584375	0.08527485656738282	0		5.53520654296875	0.28624786376953126	0		-0.2574117126464844	5.9278447265625	0		
-0.024856056213378906	-1.6210299730300904E-4	0		0.4793909606933594	-2.3658466796875	0		-1.214005615234375	0.05390463638305664	0		-0.7505137329101562	-2.496993408203125	0		1.4493092041015625	-0.600106201171875	0		3.110401123046875	-0.06860018920898438	0		4.54782958984375	0.08635333251953126	0		5.53546923828125	0.28598406982421876	0		-0.2560267333984375	5.92572705078125	0		
0.02442894172668457	-0.0022559680938720704	0		0.48849566650390625	-2.375135009765625	0		-1.2096298828125	0.056734127044677736	0		-0.7831185302734375	-2.491420654296875	0		1.4516982421875	-0.596266357421875	0		3.09728515625	-0.04046004867553711	0		4.5712021484375	0.08873355102539063	0		5.53569287109375	0.28570046997070314	0		-0.25564491271972656	5.92562744140625	0		
-0.013238563537597656	0.0014080170392990112	0		0.49079031372070314	-2.372286865234375	0		-1.2052850341796875	0.06056269454956055	0		-0.746913330078125	-2.49324462890625	0		1.4519547119140626	-0.5963892211914062	0		3.099102783203125	-0.06263943481445312	0		4.5614892578125	0.08977407836914063	0		5.538833984375	0.29736856079101565	0		-0.25530693054199216	5.92552587890625	0		
0.02896729850769043	4.5036301016807554E-4	0		0.48319769287109376	-2.361240234375	0		-1.2050697021484376	0.06047213745117187	0		-0.7816641235351562	-2.489632568359375	0		1.4521612548828124	-0.5965151977539063	0		3.11859619140625	-0.04917538452148437	0		4.5568681640625	0.09770623016357421	0		5.53603271484375	0.2850904541015625	0		-0.25501336669921876	5.92542236328125	0		
-0.023896913528442382	-5.831490159034729E-4	0		0.48022964477539065	-2.36629345703125	0		-1.135019287109375	0.05396187210083008	0		-0.7476415405273438	-2.49541845703125	0		1.45023779296875	-0.600602294921875	0		3.093644287109375	-0.054818717956542966	0		4.55703515625	0.09753472900390625	0		5.53614990234375	0.28477194213867185	0		-0.2557250671386719	5.92733740234375	0		
-0.01888301658630371	-0.005793122768402099	0		0.48031283569335936	-2.36641015625	0		-1.2129266357421875	0.05345130157470703	0		-0.79536767578125	-2.485545654296875	0		1.450345703125	-0.6007325439453125	0		3.109736328125	-0.056296524047851564	0		4.56472509765625	0.0762028579711914	0		5.5362314453125	0.2844490966796875	0		-0.2545662384033203	5.92521142578125	0		
